<?xml version="1.0" encoding="UTF-8" standalone="no"?>
<!-- Created with Inkscape (http://www.inkscape.org/) -->

<svg
   xmlns:dc="http://purl.org/dc/elements/1.1/"
   xmlns:cc="http://creativecommons.org/ns#"
   xmlns:rdf="http://www.w3.org/1999/02/22-rdf-syntax-ns#"
   xmlns:svg="http://www.w3.org/2000/svg"
   xmlns="http://www.w3.org/2000/svg"
   xmlns:sodipodi="http://sodipodi.sourceforge.net/DTD/sodipodi-0.dtd"
   xmlns:inkscape="http://www.inkscape.org/namespaces/inkscape"
   width="260mm"
   height="168mm"
   viewBox="0 0 921.26006 595.27559"
   id="svg2"
   version="1.1"
   inkscape:version="0.92.2 5c3e80d, 2017-08-06"
   sodipodi:docname="vm_logo3.svg"
   inkscape:export-filename="/Users/iLya2/switchdrive/Documents/VA Manager/vm_logo4.png"
   inkscape:export-xdpi="95.814445"
   inkscape:export-ydpi="95.814445">
  <defs
     id="defs4" />
  <sodipodi:namedview
     id="base"
     pagecolor="#ffffff"
     bordercolor="#666666"
     borderopacity="1.0"
     inkscape:pageopacity="0.0"
     inkscape:pageshadow="2"
     inkscape:zoom="0.39"
     inkscape:cx="1099.2186"
     inkscape:cy="394.78247"
     inkscape:document-units="px"
     inkscape:current-layer="layer1"
     showgrid="false"
     fit-margin-top="0"
     fit-margin-left="0"
     fit-margin-right="0"
     fit-margin-bottom="0"
     inkscape:window-width="1198"
     inkscape:window-height="758"
     inkscape:window-x="134"
     inkscape:window-y="0"
     inkscape:window-maximized="0" />
  <metadata
     id="metadata7">
    <rdf:RDF>
      <cc:Work
         rdf:about="">
        <dc:format>image/svg+xml</dc:format>
        <dc:type
           rdf:resource="http://purl.org/dc/dcmitype/StillImage" />
        <dc:title></dc:title>
      </cc:Work>
    </rdf:RDF>
  </metadata>
  <g
     inkscape:label="Layer 1"
     inkscape:groupmode="layer"
     id="layer1"
     style="display:inline"
     transform="translate(-47.114737,-106.82752)">
    <path
       d="m 182.75776,167.71825 c -13.82225,0 -25.06609,11.79457 -25.06609,26.29162 V 629.9152 c 0,14.49706 11.24539,26.29162 25.06609,26.29162 h 251.66762 c 13.82225,0 25.06772,-11.79456 25.06772,-26.29162 v -77.15056 c -7.14247,-9.16697 -14.91399,-17.9541 -23.33367,-26.29323 v 7.36281 H 181.02698 V 241.14245 h 255.13245 v 19.0396 a 139.7796,138.55939 0 0 1 23.33367,12.70108 v -78.87326 c 0.002,-14.49868 -11.24539,-26.29162 -25.06608,-26.29162 z m 0,24.4742 h 251.66762 c 0.92252,0 1.73242,0.84986 1.73242,1.81742 v 22.65678 H 181.02698 v -22.65678 c 0,-0.96919 0.80981,-1.81742 1.73078,-1.81742 z m -1.73078,366.11597 h 255.13245 v 71.60517 c 0,0.96756 -0.81145,1.81742 -1.73241,1.81742 H 182.75776 c -0.92252,0 -1.73078,-0.84986 -1.73078,-1.81742 z"
       id="path10"
       inkscape:connector-curvature="0"
       style="stroke-width:0.82936895" />
    <path
       inkscape:connector-curvature="0"
       id="path12"
       d="m 331.92828,582.78254 h -46.67051 c -6.44521,0 -11.66763,5.47902 -11.66763,12.23724 0,6.75821 5.22242,12.23724 11.66763,12.23724 h 46.67051 c 6.44521,0 11.66763,-5.47903 11.66763,-12.23724 0,-6.75822 -5.22242,-12.23724 -11.66763,-12.23724 z"
       style="stroke-width:0.82936895" />
    <path
       style="display:inline;fill:#000080;fill-rule:evenodd;stroke:none;stroke-width:0.81613904;stroke-linecap:round;stroke-linejoin:round;stroke-miterlimit:4;stroke-dasharray:none;stroke-opacity:1"
       d="m 190.04861,256.46853 c -1.12714,0 -2.03477,0.78157 -2.03477,1.7532 v 18.08914 c 0,0.97164 0.90763,1.7532 2.03477,1.7532 h 104.65423 a 139.7796,138.55939 0 0 1 40.35056,-21.59554 z"
       id="rect4258"
       inkscape:connector-curvature="0" />
    <path
       style="display:inline;fill:#000080;fill-rule:evenodd;stroke:none;stroke-width:0.81613904;stroke-linecap:round;stroke-linejoin:round;stroke-miterlimit:4;stroke-dasharray:none;stroke-opacity:1"
       d="m 190.04861,291.68992 c -1.12714,0 -2.03477,0.78319 -2.03477,1.75481 v 18.08753 c 0,0.97164 0.90763,1.75481 2.03477,1.75481 h 72.59474 a 139.7796,138.55939 0 0 1 17.02833,-21.59715 z"
       id="path4263"
       inkscape:connector-curvature="0" />
    <path
       style="display:inline;fill:#000080;fill-rule:evenodd;stroke:none;stroke-width:0.81613904;stroke-linecap:round;stroke-linejoin:round;stroke-miterlimit:4;stroke-dasharray:none;stroke-opacity:1"
       d="m 190.04861,324.30399 c -1.12714,0 -2.03477,0.78158 -2.03477,1.75321 v 18.08914 c 0,0.97163 0.90763,1.7532 2.03477,1.7532 h 57.20893 a 139.7796,138.55939 0 0 1 9.02654,-21.59555 z"
       id="path4265"
       inkscape:connector-curvature="0" />
    <path
       style="display:inline;fill:#000080;fill-rule:evenodd;stroke:none;stroke-width:0.81613904;stroke-linecap:round;stroke-linejoin:round;stroke-miterlimit:4;stroke-dasharray:none;stroke-opacity:1"
       d="m 190.04861,359.52699 c -1.12714,0 -2.03477,0.78158 -2.03477,1.75321 v 18.08753 c 0,0.97164 0.90763,1.75481 2.03477,1.75481 h 51.11606 a 139.7796,138.55939 0 0 1 2.53488,-21.59555 z"
       id="path4267"
       inkscape:connector-curvature="0" />
    <path
       style="display:inline;fill:#000080;fill-rule:evenodd;stroke:none;stroke-width:0.81613904;stroke-linecap:round;stroke-linejoin:round;stroke-miterlimit:4;stroke-dasharray:none;stroke-opacity:1"
       d="m 190.04861,393.44473 c -1.12714,0 -2.03477,0.78158 -2.03477,1.75321 v 18.08752 c 0,0.97164 0.90763,1.75481 2.03477,1.75481 h 53.79149 a 139.7796,138.55939 0 0 1 -2.76532,-21.59554 z"
       id="path4269"
       inkscape:connector-curvature="0" />
    <path
       style="display:inline;fill:#000080;fill-rule:evenodd;stroke:none;stroke-width:0.81613904;stroke-linecap:round;stroke-linejoin:round;stroke-miterlimit:4;stroke-dasharray:none;stroke-opacity:1"
       d="m 190.04861,428.66613 c -1.12714,0 -2.03477,0.78317 -2.03477,1.7548 v 18.08754 c 0,0.97163 0.90763,1.7532 2.03477,1.7532 h 66.08837 a 139.7796,138.55939 0 0 1 -8.74052,-21.59554 z"
       id="path4271"
       inkscape:connector-curvature="0" />
    <path
       style="display:inline;fill:#000080;fill-rule:evenodd;stroke:none;stroke-width:0.81613904;stroke-linecap:round;stroke-linejoin:round;stroke-miterlimit:4;stroke-dasharray:none;stroke-opacity:1"
       d="m 190.04861,461.2802 c -1.12714,0 -2.03477,0.78157 -2.03477,1.7532 v 18.08913 c 0,0.97163 0.90763,1.7532 2.03477,1.7532 h 89.47925 A 139.7796,138.55939 0 0 1 262.51259,461.2802 Z"
       id="path4273"
       inkscape:connector-curvature="0" />
    <path
       style="display:inline;fill:#000080;fill-rule:evenodd;stroke:none;stroke-width:0.81613904;stroke-linecap:round;stroke-linejoin:round;stroke-miterlimit:4;stroke-dasharray:none;stroke-opacity:1"
       d="m 190.04861,496.5016 c -1.12714,0 -2.03477,0.78317 -2.03477,1.7548 v 18.08753 c 0,0.97164 0.90763,1.75481 2.03477,1.75481 h 144.9868 A 139.7796,138.55939 0 0 1 294.89078,496.5016 Z"
       id="path4275"
       inkscape:connector-curvature="0" />
    <path
       style="display:inline;fill:none;fill-opacity:1;stroke:#000000;stroke-width:14.95577526;stroke-linecap:butt;stroke-linejoin:round;stroke-miterlimit:4;stroke-dasharray:none;stroke-opacity:1"
       d="M 506.07422,387.94346 A 122.17285,120.01573 0 0 1 383.90137,507.95918 122.17285,120.01573 0 0 1 261.72852,387.94346 122.17285,120.01573 0 0 1 383.90137,267.92773 122.17285,120.01573 0 0 1 506.07422,387.94346 Z"
       id="path4150"
       inkscape:connector-curvature="0" />
    <path
       id="path5"
       d="m 421.72897,307.74928 h -85.60773 c -5.74809,0 -10.42883,4.44454 -10.42883,9.89776 v 141.59955 c 0,5.46146 4.68074,9.89913 10.42883,9.89913 h 104.86167 c 5.75316,0 10.42957,-4.43767 10.42957,-9.89913 V 338.35385 Z m 2.46146,14.81081 13.01065,13.41731 h -13.01065 z m 18.46309,136.68684 c 0,0.87183 -0.75217,1.58761 -1.67531,1.58761 H 336.12124 c -0.92169,0 -1.66952,-0.71578 -1.66952,-1.58761 V 317.64704 c 0,-0.87389 0.74783,-1.58212 1.66952,-1.58212 h 79.30554 v 24.06997 c 0,2.29172 1.96735,4.14959 4.38399,4.14959 h 22.84275 z M 349.90324,351.95465 h 74.38081 c 1.81193,0 3.28157,1.39452 3.28157,3.11383 0,1.71931 -1.46964,3.11382 -3.28157,3.11382 h -74.38081 c -1.81158,0 -3.28159,-1.39451 -3.28159,-3.11382 0,-1.71897 1.47001,-3.11383 3.28159,-3.11383 z m 77.66238,24.03876 c 0,1.71896 -1.46964,3.11382 -3.28157,3.11382 h -74.38081 c -1.81158,0 -3.28159,-1.39451 -3.28159,-3.11382 0,-1.71931 1.47001,-3.11383 3.28159,-3.11383 h 74.38081 c 1.81193,0 3.28157,1.39486 3.28157,3.11383 z m 0,20.23968 c 0,1.7193 -1.46964,3.11382 -3.28157,3.11382 h -74.38081 c -1.81158,0 -3.28159,-1.39452 -3.28159,-3.11382 0,-1.71931 1.47001,-3.11382 3.28159,-3.11382 h 74.38081 c 1.81193,0 3.28157,1.39451 3.28157,3.11382 z m 0,20.58436 c 0,1.7193 -1.46964,3.11383 -3.28157,3.11383 h -74.38081 c -1.81158,0 -3.28159,-1.39453 -3.28159,-3.11383 0,-1.71931 1.47001,-3.11382 3.28159,-3.11382 h 74.38081 c 1.81193,0 3.28157,1.39451 3.28157,3.11382 z"
       inkscape:connector-curvature="0"
       style="fill:#000080;stroke-width:0.82936895" />
    <path
       sodipodi:nodetypes="sssssssss"
       inkscape:connector-curvature="0"
       id="path4484"
       d="m 435.61793,510.98414 c 0,0 13.1398,-5.87002 26.96698,-14.34948 0.58193,-0.35686 5.56241,-5.93301 5.71381,-5.24225 11.50797,52.51716 35.73965,101.91878 71.0552,141.76762 0.47266,0.53334 -0.34203,1.03554 -0.50054,1.7194 -3.0193,13.02392 -7.9634,23.39082 -26.967,14.34944 -0.64395,-0.30637 -1.55175,0.1552 -1.73997,-0.52717 -14.10479,-51.13535 -40.82086,-98.72358 -81.61953,-135.65478 -0.52874,-0.47864 6.42143,-1.8155 7.09105,-2.06278 z"
       style="fill:#000000;fill-rule:evenodd;stroke:#000000;stroke-width:0.50748581px;stroke-linecap:butt;stroke-linejoin:round;stroke-opacity:1" />
    <flowRoot
       xml:space="preserve"
       id="flowRoot39"
       style="font-style:normal;font-weight:normal;font-size:40px;line-height:125%;font-family:sans-serif;letter-spacing:0px;word-spacing:0px;fill:#000000;fill-opacity:1;stroke:none;stroke-width:1px;stroke-linecap:butt;stroke-linejoin:miter;stroke-opacity:1"
       transform="matrix(0.93750014,0,0,0.93750014,47.114737,106.82752)"><flowRegion
         id="flowRegion41"><rect
           id="rect43"
           width="120.51282"
           height="166.66667"
           x="517.94873"
           y="63.16576" /></flowRegion><flowPara
         id="flowPara45">Verbal</flowPara></flowRoot>    <text
       xml:space="preserve"
       style="font-style:normal;font-weight:normal;font-size:41.64424896px;line-height:125%;font-family:sans-serif;letter-spacing:0px;word-spacing:0px;fill:#000000;fill-opacity:1;stroke:none;stroke-width:1.04110622px;stroke-linecap:butt;stroke-linejoin:miter;stroke-opacity:1"
       x="619.17822"
       y="444.31546"
       id="text61"
       transform="scale(0.84227201,1.1872649)"><tspan
         sodipodi:role="line"
         id="tspan59"
         x="619.17822"
         y="444.31546"
         style="font-style:normal;font-variant:normal;font-weight:normal;font-stretch:normal;font-size:416.44250488px;font-family:'DIN Condensed';-inkscape-font-specification:'DIN Condensed, ';stroke-width:1.04110622px">V</tspan></text>
    <text
       xml:space="preserve"
       style="font-style:normal;font-weight:normal;font-size:41.87487411px;line-height:125%;font-family:sans-serif;letter-spacing:0px;word-spacing:0px;fill:#000000;fill-opacity:1;stroke:none;stroke-width:1.0468719px;stroke-linecap:butt;stroke-linejoin:miter;stroke-opacity:1"
       x="789.0329"
       y="445.1434"
       id="text65"
       transform="scale(0.83763318,1.19384)"><tspan
         sodipodi:role="line"
         id="tspan63"
         x="789.0329"
         y="445.1434"
         style="font-style:normal;font-variant:normal;font-weight:normal;font-stretch:normal;font-size:418.74874878px;font-family:'DIN Condensed';-inkscape-font-specification:'DIN Condensed, ';stroke-width:1.0468719px">M</tspan></text>
    <text
       xml:space="preserve"
       style="font-style:normal;font-weight:normal;font-size:32.00491333px;line-height:125%;font-family:sans-serif;letter-spacing:0px;word-spacing:0px;fill:#000000;fill-opacity:1;stroke:none;stroke-width:0.80012286px;stroke-linecap:butt;stroke-linejoin:miter;stroke-opacity:1"
       x="672.17566"
       y="511.00131"
       id="text55"
       transform="scale(0.85346427,1.1716952)"><tspan
         sodipodi:role="line"
         id="tspan53"
         x="672.17566"
         y="511.00131"
         style="font-style:normal;font-variant:normal;font-weight:normal;font-stretch:normal;font-size:54.11765289px;font-family:'Abadi MT Condensed Extra Bold';-inkscape-font-specification:'Abadi MT Condensed Extra Bold, ';stroke-width:0.80012286px">Verbal Autopsy</tspan><tspan
         sodipodi:role="line"
         x="672.17566"
         y="556.3667"
         style="font-style:normal;font-variant:normal;font-weight:normal;font-stretch:normal;font-size:54.11765289px;font-family:'Abadi MT Condensed Extra Bold';-inkscape-font-specification:'Abadi MT Condensed Extra Bold, ';stroke-width:0.80012286px"
         id="tspan57">Manager</tspan></text>
    <flowRoot
       xml:space="preserve"
       id="flowRoot59"
       style="font-style:normal;font-weight:normal;font-size:40px;line-height:125%;font-family:sans-serif;letter-spacing:0px;word-spacing:0px;fill:#000000;fill-opacity:1;stroke:none;stroke-width:1px;stroke-linecap:butt;stroke-linejoin:miter;stroke-opacity:1"><flowRegion
         id="flowRegion61"><rect
           id="rect63"
           width="184.61539"
           height="69.230766"
           x="487.17947"
           y="447.78116" /></flowRegion><flowPara
         id="flowPara65" /></flowRoot>  </g>
</svg>
